<svg preserveAspectRatio="none" width="100%" height="100%" overflow="visible" style="display: block;" viewBox="0 0 26 26" fill="none" xmlns="http://www.w3.org/2000/svg">
<path id="Vector" d="M6.55952 15.4506C6.68452 15.967 6.99433 16.4259 7.43573 16.7483C7.87713 17.0706 8.42258 17.2363 8.97828 17.217H21.4504C22.0056 17.2362 22.5504 17.0703 22.991 16.7479C23.4317 16.4255 23.7408 15.9667 23.8649 15.4506L24.9525 8.33103C25.026 7.96888 25.014 7.59566 24.9176 7.23842C24.8212 6.88118 24.6426 6.54884 24.3949 6.26547C24.1471 5.98209 23.8364 5.75476 23.4851 5.59996C23.1339 5.44516 22.751 5.36681 22.364 5.37046H4.90205M6.55952 15.4506L4.90205 5.37046M6.55952 15.4506C6.55952 15.4506 7.07289 20.8161 12.6934 21.04H22.7599M4.90205 5.37046L4.41477 2.41393C4.33768 2.01748 4.11772 1.65918 3.79282 1.40099C3.46793 1.14279 3.05859 1.00098 2.63559 1H1M11.658 23.018C11.658 24.1126 10.727 25 9.57861 25C8.43018 25 7.49919 24.1126 7.49919 23.018C7.49919 21.9233 8.43018 21.0359 9.57861 21.0359C10.727 21.0359 11.658 21.9233 11.658 23.018ZM24.8393 23.018C24.8393 24.1126 23.9083 25 22.7599 25C21.6114 25 20.6804 24.1126 20.6804 23.018C20.6804 21.9233 21.6114 21.0359 22.7599 21.0359C23.9083 21.0359 24.8393 21.9233 24.8393 23.018Z" stroke="var(--stroke-0, black)" stroke-width="2" stroke-linecap="round" stroke-linejoin="round"/>
</svg>
