<svg preserveAspectRatio="none" width="100%" height="100%" overflow="visible" style="display: block;" viewBox="0 0 36.2139 35.9957" fill="none" xmlns="http://www.w3.org/2000/svg">
<path id="Vector" d="M15.4329 25.2729L20.2185 21.5359C20.7994 21.0826 21.27 20.4991 21.5939 19.8306C21.9178 19.1622 22.0864 18.4267 22.0864 17.6813C22.0864 16.9358 21.9178 16.2004 21.5939 15.5319C21.27 14.8635 20.7994 14.28 20.2185 13.8267L15.4329 10.0946M18.1089 35.4785C18.1089 35.4785 30.2154 36.3874 34.4698 24.982C36.1286 20.4792 36.1286 15.5163 34.4698 11.0136C30.2154 -0.386702 18.1089 0.516919 18.1089 0.516919C18.1089 0.516919 5.99719 -0.386702 1.74787 11.0136C0.0840444 15.5154 0.0840444 20.4801 1.74787 24.982C5.99719 36.3874 18.1089 35.4785 18.1089 35.4785Z" stroke="var(--stroke-0, white)" stroke-linecap="round" stroke-linejoin="round"/>
</svg>
