<svg preserveAspectRatio="none" width="100%" height="100%" overflow="visible" style="display: block;" viewBox="0 0 7 12" fill="none" xmlns="http://www.w3.org/2000/svg">
<path id="Vector" d="M3.71 5.26667C2.121 4.87333 1.61 4.46667 1.61 3.83333C1.61 3.10667 2.317 2.6 3.5 2.6C4.494 2.6 4.991 2.96 5.173 3.53333C5.257 3.8 5.488 4 5.782 4H5.992C6.454 4 6.783 3.56667 6.622 3.15333C6.328 2.36667 5.642 1.71333 4.55 1.46V1C4.55 0.446667 4.081 0 3.5 0C2.919 0 2.45 0.446667 2.45 1V1.44C1.092 1.72 0 2.56 0 3.84667C0 5.38667 1.337 6.15333 3.29 6.6C5.04 7 5.39 7.58667 5.39 8.20667C5.39 8.66667 5.047 9.4 3.5 9.4C2.345 9.4 1.75 9.00667 1.519 8.44667C1.414 8.18667 1.176 8 0.889 8H0.693C0.224 8 -0.105 8.45333 0.0699999 8.86667C0.469 9.79333 1.4 10.34 2.45 10.5533V11C2.45 11.5533 2.919 12 3.5 12C4.081 12 4.55 11.5533 4.55 11V10.5667C5.915 10.32 7 9.56667 7 8.2C7 6.30667 5.299 5.66 3.71 5.26667Z" fill="var(--fill-0, #A6171C)"/>
</svg>
