<svg preserveAspectRatio="none" width="100%" height="100%" overflow="visible" style="display: block;" viewBox="0 0 44 44" fill="none" xmlns="http://www.w3.org/2000/svg">
<path id="Vector" d="M1.5 12.0221V5.19841C1.50154 4.21702 1.89234 3.27634 2.58674 2.58293C3.28113 1.88952 4.2223 1.5 5.20355 1.5H12.8248M12.8248 42.5H5.20355C4.22176 42.4985 3.28069 42.1077 2.58646 41.4134C1.89223 40.7191 1.50153 39.7777 1.5 38.7958V30.3632M31.1694 1.5H38.7907C39.7724 1.5 40.7141 1.88927 41.4095 2.58251C42.1048 3.27575 42.4969 4.21649 42.5 5.19841V12.0221M42.5 30.3632V38.7958C42.4985 39.7787 42.107 40.7209 41.4116 41.4154C40.7161 42.1099 39.7734 42.5 38.7907 42.5H31.1694M11.5402 7.80861H14.914C17.0585 7.80861 18.797 9.54733 18.797 11.6921V15.0664C18.797 17.2112 17.0585 18.9499 14.914 18.9499H11.5402C9.39568 18.9499 7.6572 17.2112 7.6572 15.0664V11.6921C7.6572 9.54733 9.39568 7.80861 11.5402 7.80861ZM29.086 7.80861H32.4598C34.6043 7.80861 36.3428 9.54733 36.3428 11.6921V15.0664C36.3428 17.2112 34.6043 18.9499 32.4598 18.9499H29.086C26.9415 18.9499 25.203 17.2112 25.203 15.0664V11.6921C25.203 9.54733 26.9415 7.80861 29.086 7.80861ZM11.5402 24.7897H14.914C17.0585 24.7897 18.797 26.5284 18.797 28.6732V32.0474C18.797 34.1922 17.0585 35.931 14.914 35.931H11.5402C9.39568 35.931 7.6572 34.1922 7.6572 32.0474V28.6732C7.6572 26.5284 9.39568 24.7897 11.5402 24.7897ZM29.086 24.7897H32.4598C34.6043 24.7897 36.3428 26.5284 36.3428 28.6732V32.0474C36.3428 34.1922 34.6043 35.931 32.4598 35.931H29.086C26.9415 35.931 25.203 34.1922 25.203 32.0474V28.6732C25.203 26.5284 26.9415 24.7897 29.086 24.7897Z" stroke="var(--stroke-0, #A6171C)" stroke-width="3" stroke-linecap="round" stroke-linejoin="round"/>
</svg>
