<svg preserveAspectRatio="none" width="100%" height="100%" overflow="visible" style="display: block;" viewBox="0 0 16 25" fill="none" xmlns="http://www.w3.org/2000/svg">
<g id="Vector">
<path d="M8.02192 8.78078C9.9668 8.78078 11.5434 7.03899 11.5434 4.89039C11.5434 2.74179 9.9668 1 8.02192 1C6.07703 1 4.50038 2.74179 4.50038 4.89039C4.50038 7.03899 6.07703 8.78078 8.02192 8.78078Z" stroke="var(--stroke-0, #1E1E1E)" stroke-width="2" stroke-linecap="round" stroke-linejoin="round"/>
<path d="M14.5046 20.1441C12.8143 24.3388 8.00004 23.9931 8.00004 23.9931C8.00004 23.9931 3.18257 24.325 1.49537 20.1441C1.16883 19.3399 1 18.4683 1 17.5869C1 16.7054 1.16883 15.8339 1.49537 15.0296C3.18257 10.8349 8.00004 11.1807 8.00004 11.1807C8.00004 11.1807 12.8143 10.8488 14.5046 15.0296C14.8312 15.8339 15 16.7054 15 17.5869C15 18.4683 14.8312 19.3399 14.5046 20.1441Z" stroke="var(--stroke-0, #1E1E1E)" stroke-width="2" stroke-linecap="round" stroke-linejoin="round"/>
</g>
</svg>
