<svg preserveAspectRatio="none" width="100%" height="100%" overflow="visible" style="display: block;" viewBox="0 0 22.5001 20.5" fill="none" xmlns="http://www.w3.org/2000/svg">
<path id="Vector" d="M15.5346 17.303C14.0049 18.5416 12.1158 19.2261 10.1639 19.2494C8.21203 19.2726 6.30785 18.6332 4.75027 17.4314C3.1927 16.2297 2.06994 14.5336 1.5582 12.6095C1.04645 10.6854 1.17469 8.64222 1.92284 6.80064C2.67098 4.95906 3.99664 3.42336 5.69173 2.43462C7.38681 1.44587 9.35534 1.06004 11.2883 1.33773C13.2213 1.61541 15.0093 2.5409 16.3717 3.96886C17.734 5.39682 18.5935 7.24642 18.8153 9.22735C18.8603 9.64347 18.9515 10.4109 18.9401 10.8294M16.3078 8.2086L17.9581 10.4264C18.0542 10.5557 18.1783 10.6605 18.3207 10.7326C18.4631 10.8048 18.62 10.8423 18.7789 10.8423C18.9379 10.8423 19.0947 10.8048 19.2371 10.7326C19.3795 10.6605 19.5036 10.5557 19.5998 10.4264L21.25 8.2086" stroke="var(--stroke-0, #9C9C9C)" stroke-width="2.5" stroke-linecap="round" stroke-linejoin="round"/>
</svg>
