<svg preserveAspectRatio="none" width="100%" height="100%" overflow="visible" style="display: block;" viewBox="0 0 24 24" fill="none" xmlns="http://www.w3.org/2000/svg">
<g id="Icon">
<path id="Circle 2" opacity="0.21" d="M16 0C20.4183 0 24 3.58172 24 8V16C24 20.4183 20.4183 24 16 24H8C3.58172 24 1.28855e-07 20.4183 0 16V8C0 3.58172 3.58172 1.28851e-07 8 0H16Z" fill="var(--fill-0, #FCB3B3)"/>
<g id="icon">
<path id="Path 95" d="M8.24444 15.9556H17.5778C17.9214 15.9556 18.2 16.2341 18.2 16.5778C18.2 16.9214 17.9214 17.2 17.5778 17.2H7.62222C7.27858 17.2 7 16.9214 7 16.5778V6.62222C7 6.27858 7.27858 6 7.62222 6C7.96587 6 8.24444 6.27858 8.24444 6.62222V15.9556Z" fill="var(--fill-0, #A6171C)"/>
<path id="Path 97" opacity="0.5" d="M10.5651 13.2701C10.3301 13.5208 9.93633 13.5335 9.68563 13.2985C9.43492 13.0634 9.42222 12.6697 9.65726 12.419L11.9906 9.93007C12.2179 9.68761 12.5956 9.66659 12.8484 9.88232L14.69 11.4538L17.0895 8.41452C17.3024 8.1448 17.6937 8.09877 17.9634 8.31171C18.2331 8.52464 18.2792 8.91592 18.0662 9.18564L15.2662 12.7323C15.0475 13.0093 14.6424 13.0492 14.374 12.8201L12.4923 11.2144L10.5651 13.2701Z" fill="var(--fill-0, #A6171C)"/>
</g>
</g>
</svg>
