<svg preserveAspectRatio="none" width="100%" height="100%" overflow="visible" style="display: block;" viewBox="0 0 28.8 21.8" fill="none" xmlns="http://www.w3.org/2000/svg">
<path id="Vector" d="M4.21664 20.9V11.6471C4.21664 11.4794 4.25092 11.3133 4.31764 11.1584C4.38436 11.0034 4.48216 10.8628 4.6054 10.7443C4.72864 10.6259 4.87491 10.532 5.03585 10.4682C5.19678 10.4044 5.36921 10.3717 5.54324 10.3722H7.45868C7.63272 10.3717 7.80514 10.4044 7.96608 10.4682C8.12701 10.532 8.27328 10.6259 8.39652 10.7443C8.51976 10.8628 8.61757 11.0034 8.68428 11.1584C8.751 11.3133 8.78528 11.4794 8.78528 11.6471V20.9M12.5964 20.9V6.67267C12.5964 6.33356 12.7362 6.00829 12.985 5.76851C13.2338 5.52872 13.5713 5.39401 13.9231 5.39401H15.8424C16.0164 5.39401 16.1888 5.42714 16.3495 5.49144C16.5102 5.55574 16.6562 5.64991 16.7791 5.76869C16.902 5.88747 16.9994 6.02854 17.0656 6.18364C17.1319 6.33875 17.1657 6.50493 17.1652 6.67267V20.9M20.4425 20.9V2.17857C20.4425 1.83946 20.5823 1.51429 20.8311 1.2745C21.0798 1.03471 21.4173 0.9 21.7692 0.9H23.6885C24.0403 0.9 24.3778 1.03471 24.6266 1.2745C24.8754 1.51429 25.0152 1.83946 25.0152 2.17857V20.9M27.9 20.9H0.9" stroke="var(--stroke-0, black)" stroke-width="1.8" stroke-linecap="round" stroke-linejoin="round"/>
</svg>
