<svg preserveAspectRatio="none" width="100%" height="100%" overflow="visible" style="display: block;" viewBox="0 0 17.2867 18.2583" fill="none" xmlns="http://www.w3.org/2000/svg">
<path id="Vector" d="M12.4286 2.47649C11.819 2.29712 10.9244 2.13566 10.292 2.06723C9.62818 1.99105 8.9605 1.95196 8.29218 1.95003C6.57471 1.95003 4.7079 2.17993 3.21446 3.14097C1.29164 4.38481 0.820274 6.95523 0.76427 9.16241C0.705932 11.4294 0.743282 14.2941 2.58676 15.8299C4.23421 17.1933 6.55371 17.5037 8.57686 17.5083C11.6734 17.5083 15.6544 16.8185 16.2588 12.9928C16.5388 11.2086 16.7255 8.60369 16.2214 6.55516M15.6288 1.10392C15.2973 0.839541 14.873 0.71529 14.4488 0.75838C14.0246 0.801469 13.635 1.00839 13.3652 1.33384L6.45805 9.76022L5.38697 13.2089C5.37135 13.2594 5.37138 13.3132 5.38709 13.3636C5.40279 13.414 5.43343 13.4587 5.47508 13.4918C5.51672 13.5249 5.56746 13.545 5.62078 13.5495C5.6741 13.554 5.72757 13.5427 5.77431 13.517L8.96657 11.7605L12.419 7.54842L15.8714 3.33638C16.1382 3.00805 16.2625 2.58914 16.217 2.17093C16.1715 1.75271 15.9601 1.36914 15.6288 1.10392Z" stroke="var(--stroke-0, #A6171C)" stroke-width="1.5" stroke-linecap="round" stroke-linejoin="round"/>
</svg>
