<svg preserveAspectRatio="none" width="100%" height="100%" overflow="visible" style="display: block;" viewBox="0 0 16.3 20.2299" fill="none" xmlns="http://www.w3.org/2000/svg">
<g id="Group 218">
<path id="Vector" d="M2.87229 6.28492C0.750004 10.1317 -0.526284 16.8311 4.74701 18.8409C5.86764 19.2627 7.06987 19.4799 8.28415 19.4799C9.49844 19.4799 10.7007 19.2627 11.8213 18.8409C16.4196 17.1156 16.4196 10.8256 13.1065 6.34606M5.93486 8.83708V16.0389M10.3651 8.83708V16.0389M4.90616 2.58167C4.90616 1.5741 6.27971 0.75 7.9628 0.75H8.3401C10.0232 0.75 11.3968 1.5741 11.3968 2.58167M1.97031 2.7784H14.3297C15.0036 2.7784 15.55 3.27116 15.55 3.87901V5.18432C15.55 5.79218 15.0036 6.28494 14.3297 6.28494H1.97031C1.29635 6.28494 0.75 5.79218 0.75 5.18432V3.87901C0.75 3.27116 1.29635 2.7784 1.97031 2.7784Z" stroke="var(--stroke-0, #A6171C)" stroke-width="1.5" stroke-linecap="round" stroke-linejoin="round"/>
</g>
</svg>
