<svg preserveAspectRatio="none" width="100%" height="100%" overflow="visible" style="display: block;" viewBox="0 0 29.8001 27.8" fill="none" xmlns="http://www.w3.org/2000/svg">
<path id="Vector" d="M15.7159 7.44675C15.917 7.81777 16.0227 8.23293 16.0235 8.65488V26.9L20.8509 23.7293C21.6905 23.1771 22.3797 22.4251 22.8567 21.5408C23.3336 20.6566 23.5834 19.6677 23.5835 18.6631V17.9759M16.0235 8.65488V26.8929L8.46009 21.9331M8.46009 21.9331V2.31686M15.7159 7.44675C15.5149 7.07573 15.2248 6.76046 14.8716 6.52923L8.46009 2.31686L1.82867 6.67446C1.54294 6.8617 1.30843 7.11724 1.1463 7.41786C0.984163 7.71848 0.89956 8.05475 0.900118 8.39627V22.5673C0.899046 22.9887 1.01215 23.4025 1.22738 23.7649C1.4426 24.1273 1.75188 24.4247 2.12253 24.6256C2.49319 24.8265 2.91131 24.9233 3.33257 24.9058C3.75383 24.8884 4.16254 24.7573 4.51527 24.5264L8.46009 21.9331M15.7159 7.44675L18.26 5.51954M0.900103 20.0873L8.4636 15.1452L16.0236 20.105M23.5445 7.94633C23.9115 7.96691 24.2757 7.87292 24.5869 7.67743C24.898 7.48193 25.1407 7.19457 25.2813 6.85514C25.4585 6.38717 25.4585 5.87063 25.2813 5.40267C25.1253 5.07475 24.8795 4.79776 24.5724 4.60382C24.2653 4.40987 23.9096 4.30689 23.5463 4.30689C23.1831 4.30689 22.8272 4.40987 22.5202 4.60382C22.2131 4.79776 21.9674 5.07475 21.8114 5.40267C21.6342 5.87063 21.6342 6.38717 21.8114 6.85514C21.9517 7.19397 22.1938 7.48094 22.5042 7.67639C22.8147 7.87184 23.1782 7.96616 23.5445 7.94633ZM28.5313 4.04219C27.3121 0.832464 23.9698 0.885567 23.5693 0.903281C23.1688 0.920994 19.8443 0.832464 18.6251 4.04219C18.1378 5.39337 18.1166 6.86867 18.5649 8.23329C19.3836 11.0037 21.6342 13.6076 23.5658 15.3435C25.4974 13.6076 27.7481 11.0037 28.5668 8.23329C29.0231 6.87143 29.0106 5.39615 28.5313 4.04219Z" stroke="var(--stroke-0, black)" stroke-width="1.8" stroke-linecap="round" stroke-linejoin="round"/>
</svg>
