<svg preserveAspectRatio="none" width="100%" height="100%" overflow="visible" style="display: block;" viewBox="0 0 17.5001 18.5" fill="none" xmlns="http://www.w3.org/2000/svg">
<path id="Vector" d="M12.5864 2.50139C11.9686 2.31943 11.0619 2.15565 10.421 2.08623C9.74816 2.00895 9.07145 1.9693 8.3941 1.96734C6.65343 1.96734 4.76139 2.20055 3.24776 3.17546C1.29896 4.43723 0.821222 7.04473 0.764461 9.28374C0.705335 11.5834 0.74319 14.4894 2.61158 16.0474C4.2813 17.4305 6.63213 17.7453 8.68263 17.75C11.821 17.75 15.8558 17.0503 16.4684 13.1693C16.7522 11.3595 16.9414 8.71697 16.4305 6.63889M15.8298 1.10903C15.4939 0.840833 15.0639 0.71479 14.6339 0.758501C14.204 0.802211 13.8091 1.01212 13.5357 1.34226L6.53518 9.89018L5.44963 13.3886C5.4338 13.4398 5.43383 13.4944 5.44975 13.5456C5.46566 13.5967 5.49672 13.642 5.53893 13.6756C5.58114 13.7092 5.63255 13.7296 5.6866 13.7341C5.74064 13.7387 5.79483 13.7272 5.84221 13.7011L9.0776 11.9193L12.5767 7.64648L16.0758 3.37368C16.3462 3.04062 16.4721 2.61566 16.426 2.19142C16.3799 1.76717 16.1656 1.37807 15.8298 1.10903Z" stroke="var(--stroke-0, #A6171C)" stroke-width="1.5" stroke-linecap="round" stroke-linejoin="round"/>
</svg>
