<svg preserveAspectRatio="none" width="100%" height="100%" overflow="visible" style="display: block;" viewBox="0 0 13 14.4667" fill="none" xmlns="http://www.w3.org/2000/svg">
<g id="icon">
<path id="Combined Shape" fill-rule="evenodd" clip-rule="evenodd" d="M0 4.90381L5.59021 8.13132C5.65041 8.16607 5.71353 8.19118 5.77778 8.20711V14.4667L0.398695 11.2834C0.151573 11.1371 0 10.8713 0 10.5841L0 4.90381ZM13 4.81801V10.5841C13 10.8713 12.8485 11.1371 12.6013 11.2834L7.22226 14.4667V8.15227C7.23536 8.14573 7.24835 8.13874 7.26121 8.13132L13 4.81801V4.81801Z" fill="var(--fill-0, #A6171C)"/>
<path id="Path" opacity="0.499209" fill-rule="evenodd" clip-rule="evenodd" d="M0.175618 3.33731C0.243901 3.25109 0.330086 3.17821 0.430567 3.12469L6.11807 0.095407C6.35683 -0.0317616 6.64322 -0.0317616 6.88198 0.095407L12.5695 3.12469C12.6469 3.16595 12.7159 3.21871 12.7747 3.28022L6.53897 6.88042C6.49797 6.90409 6.46017 6.93118 6.42572 6.96111C6.39126 6.93118 6.35346 6.90409 6.31246 6.88042L0.175618 3.33731Z" fill="var(--fill-0, #A6171C)"/>
</g>
</svg>
