<svg preserveAspectRatio="none" width="100%" height="100%" overflow="visible" style="display: block;" viewBox="0 0 48.521 48.521" fill="none" xmlns="http://www.w3.org/2000/svg">
<g id="carbon:money">
<path id="Vector" d="M3.03256 33.3582H45.4884V36.3907H3.03256V33.3582ZM3.03256 39.4233H45.4884V42.4559H3.03256V39.4233ZM36.3907 15.1628C35.7909 15.1628 35.2046 15.3407 34.7059 15.6739C34.2072 16.0071 33.8185 16.4807 33.589 17.0349C33.3595 17.589 33.2994 18.1987 33.4164 18.787C33.5335 19.3753 33.8223 19.9156 34.2464 20.3397C34.6705 20.7638 35.2109 21.0526 35.7991 21.1697C36.3874 21.2867 36.9971 21.2266 37.5512 20.9971C38.1054 20.7676 38.579 20.3789 38.9122 19.8802C39.2454 19.3815 39.4233 18.7952 39.4233 18.1954C39.4233 17.3911 39.1038 16.6197 38.5351 16.051C37.9664 15.4823 37.195 15.1628 36.3907 15.1628ZM24.2605 24.2605C23.0609 24.2605 21.8883 23.9048 20.8909 23.2383C19.8935 22.5719 19.1161 21.6246 18.657 20.5164C18.198 19.4081 18.0779 18.1886 18.3119 17.0121C18.5459 15.8356 19.1236 14.7549 19.9718 13.9067C20.82 13.0585 21.9007 12.4808 23.0772 12.2468C24.2538 12.0128 25.4733 12.1329 26.5815 12.5919C27.6898 13.051 28.637 13.8284 29.3035 14.8258C29.9699 15.8232 30.3256 16.9958 30.3256 18.1954C30.3236 19.8033 29.684 21.3448 28.547 22.4818C27.41 23.6188 25.8684 24.2585 24.2605 24.2605ZM24.2605 15.1628C23.6607 15.1628 23.0744 15.3407 22.5757 15.6739C22.077 16.0071 21.6883 16.4807 21.4588 17.0349C21.2292 17.589 21.1692 18.1987 21.2862 18.787C21.4032 19.3753 21.692 19.9156 22.1161 20.3397C22.5403 20.7638 23.0806 21.0526 23.6689 21.1697C24.2571 21.2867 24.8669 21.2266 25.421 20.9971C25.9751 20.7676 26.4487 20.3789 26.782 19.8802C27.1152 19.3815 27.293 18.7952 27.293 18.1954C27.293 17.3911 26.9735 16.6197 26.4048 16.051C25.8361 15.4823 25.0648 15.1628 24.2605 15.1628ZM12.1302 15.1628C11.5305 15.1628 10.9441 15.3407 10.4454 15.6739C9.94674 16.0071 9.55805 16.4807 9.32852 17.0349C9.099 17.589 9.03894 18.1987 9.15595 18.787C9.27297 19.3753 9.56179 19.9156 9.9859 20.3397C10.41 20.7638 10.9504 21.0526 11.5386 21.1697C12.1269 21.2867 12.7366 21.2266 13.2908 20.9971C13.8449 20.7676 14.3185 20.3789 14.6517 19.8802C14.9849 19.3815 15.1628 18.7952 15.1628 18.1954C15.1628 17.3911 14.8433 16.6197 14.2746 16.051C13.7059 15.4823 12.9345 15.1628 12.1302 15.1628Z" fill="var(--fill-0, #A6171C)"/>
<path id="Vector_2" d="M42.4559 30.3256H6.06512C5.26145 30.3236 4.49127 30.0035 3.92299 29.4352C3.35471 28.8669 3.03456 28.0967 3.03256 27.2931V9.09768C3.03456 8.29401 3.35471 7.52383 3.92299 6.95555C4.49127 6.38727 5.26145 6.06712 6.06512 6.06512H42.4559C43.2595 6.06712 44.0297 6.38727 44.598 6.95555C45.1663 7.52383 45.4864 8.29401 45.4884 9.09768V27.2931C45.4872 28.097 45.1673 28.8676 44.5989 29.4361C44.0304 30.0045 43.2598 30.3244 42.4559 30.3256ZM42.4559 9.09768H6.06512V27.2931H42.4559V9.09768Z" fill="var(--fill-0, #A6171C)"/>
</g>
</svg>
