<svg preserveAspectRatio="none" width="100%" height="100%" overflow="visible" style="display: block;" viewBox="0 0 16 16" fill="none" xmlns="http://www.w3.org/2000/svg">
<path id="Shape" fill-rule="evenodd" clip-rule="evenodd" d="M8 1.45455C6.67452 1.45455 5.6 2.43138 5.6 3.63636C5.6 4.84135 6.67452 5.81818 8 5.81818C9.32548 5.81818 10.4 4.84135 10.4 3.63636C10.4 2.43138 9.32548 1.45455 8 1.45455ZM4 3.63636C4 1.62806 5.79086 0 8 0C10.2091 0 12 1.62806 12 3.63636C12 5.64467 10.2091 7.27273 8 7.27273C5.79086 7.27273 4 5.64467 4 3.63636ZM3.02276 9.56363C4.61911 8.91308 6.5472 8.72727 8 8.72727C9.4528 8.72727 11.3809 8.91308 12.9772 9.56363C14.6024 10.2259 16 11.4342 16 13.4545V14.1818C16 15.167 15.1238 16 14.0147 16H1.98535C0.876156 16 0 15.167 0 14.1818V13.4545C0 11.4342 1.39764 10.2259 3.02276 9.56363ZM3.67724 10.8909C2.40236 11.4105 1.6 12.2022 1.6 13.4545V14.1818C1.6 14.387 1.78524 14.5455 1.98535 14.5455H14.0147C14.2148 14.5455 14.4 14.387 14.4 14.1818V13.4545C14.4 12.2022 13.5976 11.4105 12.3228 10.8909C11.0191 10.3596 9.3472 10.1818 8 10.1818C6.6528 10.1818 4.98089 10.3596 3.67724 10.8909Z" fill="var(--fill-0, #9C9C9C)"/>
</svg>
