<svg preserveAspectRatio="none" width="100%" height="100%" overflow="visible" style="display: block;" viewBox="0 0 43.5 43.5" fill="none" xmlns="http://www.w3.org/2000/svg">
<path id="Vector" d="M1.75 12.0155V5.3582C1.7515 4.40075 2.13277 3.48301 2.81023 2.80652C3.48769 2.13002 4.4059 1.75 5.36322 1.75H12.7986M12.7986 41.75H5.36322C4.40538 41.7485 3.48725 41.3673 2.80996 40.6899C2.13266 40.0125 1.7515 39.0941 1.75 38.1361V29.9093M30.6957 1.75H38.1311C39.089 1.75 40.0077 2.12977 40.686 2.8061C41.3644 3.48244 41.747 4.40023 41.75 5.3582V12.0155M41.75 29.9093V38.1361C41.7485 39.0951 41.3666 40.0143 40.6881 40.6918C40.0096 41.3694 39.0899 41.75 38.1311 41.75H30.6957M11.5453 7.90474H14.8368C16.929 7.90474 18.6251 9.60105 18.6251 11.6936V14.9855C18.6251 17.078 16.929 18.7743 14.8368 18.7743H11.5453C9.4531 18.7743 7.75703 17.078 7.75703 14.9855V11.6936C7.75703 9.60105 9.4531 7.90474 11.5453 7.90474ZM28.6632 7.90474H31.9547C34.0469 7.90474 35.743 9.60105 35.743 11.6936V14.9855C35.743 17.078 34.0469 18.7743 31.9547 18.7743H28.6632C26.571 18.7743 24.8749 17.078 24.8749 14.9855V11.6936C24.8749 9.60105 26.571 7.90474 28.6632 7.90474ZM11.5453 24.4716H14.8368C16.929 24.4716 18.6251 26.1679 18.6251 28.2604V31.5524C18.6251 33.6449 16.929 35.3412 14.8368 35.3412H11.5453C9.4531 35.3412 7.75703 33.6449 7.75703 31.5524V28.2604C7.75703 26.1679 9.4531 24.4716 11.5453 24.4716ZM28.6632 24.4716H31.9547C34.0469 24.4716 35.743 26.1679 35.743 28.2604V31.5524C35.743 33.6449 34.0469 35.3412 31.9547 35.3412H28.6632C26.571 35.3412 24.8749 33.6449 24.8749 31.5524V28.2604C24.8749 26.1679 26.571 24.4716 28.6632 24.4716Z" stroke="var(--stroke-0, #A6171C)" stroke-width="3.5" stroke-linecap="round" stroke-linejoin="round"/>
</svg>
