<svg preserveAspectRatio="none" width="100%" height="100%" overflow="visible" style="display: block;" viewBox="0 0 16.5 20.5" fill="none" xmlns="http://www.w3.org/2000/svg">
<path id="Vector" d="M2.90097 6.36475C0.750004 10.2671 -0.543531 17.0631 4.80102 19.1019C5.93679 19.5297 7.15527 19.75 8.38596 19.75C9.61666 19.75 10.8351 19.5297 11.9709 19.1019C16.6313 17.3516 16.6314 10.9709 13.2735 6.42677M6.00493 8.95372V16.2594M10.4951 8.95372V16.2594M4.96232 2.60809C4.96232 1.58599 6.35443 0.75 8.06027 0.75H8.44267C10.1485 0.75 11.5407 1.58599 11.5407 2.60809M1.98681 2.80765H14.5132C15.1963 2.80765 15.75 3.30752 15.75 3.92414V5.24828C15.75 5.8649 15.1963 6.36477 14.5132 6.36477H1.98681C1.30374 6.36477 0.75 5.8649 0.75 5.24828V3.92414C0.75 3.30752 1.30374 2.80765 1.98681 2.80765Z" stroke="var(--stroke-0, #A6171C)" stroke-width="1.5" stroke-linecap="round" stroke-linejoin="round"/>
</svg>
