<svg preserveAspectRatio="none" width="100%" height="100%" overflow="visible" style="display: block;" viewBox="0 0 14.5015 24.5" fill="none" xmlns="http://www.w3.org/2000/svg">
<path id="Meals" d="M3.67651 16.0431C3.06979 17.312 2.60699 18.6297 2.29479 19.9776C2.07602 20.9839 1.9033 22.6445 2.90504 23.369C3.10581 23.5373 3.35427 23.6559 3.62486 23.7124C3.89545 23.769 4.17841 23.7615 4.44461 23.6908C4.71081 23.6201 4.95065 23.4886 5.13945 23.31C5.32824 23.1314 5.4592 22.9122 5.5188 22.6747C5.66849 21.8093 5.3806 17.955 5.34606 16.9587C5.34606 16.3046 5.34606 15.6405 5.34606 14.9461C5.34606 11.2228 5.19639 5.02416 5.18488 1.30084C5.1755 1.18805 5.12948 1.07977 5.0522 0.989071C4.97491 0.898374 4.86958 0.829011 4.74863 0.788842C4.62768 0.748673 4.49611 0.739354 4.36941 0.762309C4.24272 0.785264 4.12617 0.839435 4.03345 0.918315C1.03974 4.08817 -0.238345 8.21414 1.61545 12.1186C1.92853 12.826 2.43737 13.4545 3.09644 13.9479C3.75551 14.4414 4.54425 14.7843 5.39213 14.9461M10.2397 10.5587C10.1015 12.7324 9.57182 14.8656 9.2264 17.0191C8.9157 18.3978 8.76525 19.8002 8.77734 21.2053C8.86946 22.282 9.31852 23.7311 10.8384 23.7412C11.2549 23.7522 11.6626 23.6348 11.9898 23.4093C12.3562 23.086 12.6081 22.677 12.7152 22.2317C12.8982 21.5736 12.9642 20.8948 12.911 20.2191C12.911 19.1424 12.6231 18.0959 12.4504 17.0393C12.105 14.8858 11.5753 12.7525 11.4371 10.5789M9.8021 1.13965V6.17116M11.9207 6.14094V1.10943M7.92529 1.13965V8.03292C7.92832 8.70733 8.23621 9.35343 8.78187 9.83031C9.32753 10.3072 10.0667 10.5762 10.8384 10.5789C11.6101 10.5762 12.3493 10.3072 12.8949 9.83031C13.4406 9.35343 13.7485 8.70733 13.7515 8.03292V1.13965" stroke="var(--stroke-0, black)" stroke-width="1.5" stroke-linecap="round" stroke-linejoin="round"/>
</svg>
